<svg xmlns="http://www.w3.org/2000/svg" width="31" height="36" viewBox="0 0 31 36"><g><g><path fill="#3fae49" d="M14.945 19.043v.909a1.01 1.01 0 0 1-1.006 1.114c-.023 0-.045-.003-.067-.004h-1.134v3.206H15.6a3.68 3.68 0 0 0 3.679-3.668 3.64 3.64 0 0 0-2.052-3.282l-1.29-.636 1.035-.998c.459-.44.712-1.027.712-1.657a2.303 2.303 0 0 0-2.305-2.298h-2.641v1.991H10.71V9.748h5.256v.003c2.103.29 3.746 2.117 3.746 4.276 0 .755-.193 1.482-.56 2.125a5.658 5.658 0 0 1 2.153 4.448 5.676 5.676 0 0 1-4.871 5.614H10.71v-5.987c0-.65.53-1.178 1.182-1.178v-.002zM9.995 2.59c.128 0 .234.106.234.236v.963c0 .13-.106.235-.234.235h-8.56v27.957h8.56c.128 0 .234.106.234.235v.963c0 .129-.106.235-.234.235H.718A.717.717 0 0 1 0 32.699V3.307c0-.395.322-.717.718-.717zm20.168 0a.72.72 0 0 1 .718.717V32.7a.718.718 0 0 1-.718.715h-9.374a.237.237 0 0 1-.237-.235v-.963c0-.129.108-.235.237-.235h8.656V4.024H20.79a.238.238 0 0 1-.237-.235v-.963c0-.13.108-.236.237-.236zm-19.49-1.158a.236.236 0 0 1-.236-.235V.235c0-.13.107-.235.237-.235H19.9c.13 0 .236.106.236.235v.962c0 .13-.105.235-.236.235zm9.228 33.126c.13 0 .236.106.236.235v.963c0 .13-.105.236-.236.236h-9.227a.237.237 0 0 1-.237-.236v-.963c0-.13.107-.235.237-.235z"/></g></g></svg>